<svg width="32" height="32" viewBox="0 0 32 32" fill="none" xmlns="http://www.w3.org/2000/svg">
<rect x="0.5" y="0.5" width="31" height="31" rx="15.5" fill="#FFEBEB"/>
<rect x="0.5" y="0.5" width="31" height="31" rx="15.5" stroke="#FEC1C1"/>
<path fill-rule="evenodd" clip-rule="evenodd" d="M22.0397 11.9701C22.1801 12.1107 22.259 12.3013 22.259 12.5001C22.259 12.6988 22.1801 12.8894 22.0397 13.0301L15.0397 20.0301C14.899 20.1705 14.7084 20.2494 14.5097 20.2494C14.3109 20.2494 14.1203 20.1705 13.9797 20.0301L9.97967 16.0301C9.90599 15.9614 9.84689 15.8786 9.80589 15.7866C9.7649 15.6946 9.74286 15.5953 9.74108 15.4946C9.73931 15.3939 9.75783 15.2939 9.79555 15.2005C9.83327 15.1071 9.88942 15.0223 9.96064 14.951C10.0319 14.8798 10.1167 14.8237 10.2101 14.7859C10.3035 14.7482 10.4035 14.7297 10.5042 14.7315C10.6049 14.7333 10.7042 14.7553 10.7962 14.7963C10.8882 14.8373 10.971 14.8964 11.0397 14.9701L14.5097 18.4401L20.9797 11.9701C21.1203 11.8296 21.3109 11.7507 21.5097 11.7507C21.7084 11.7507 21.8991 11.8296 22.0397 11.9701Z" fill="#FD3837"/>
</svg>
