<svg width="34" height="34" viewBox="0 0 34 34" fill="none" xmlns="http://www.w3.org/2000/svg">
<rect x="0.5" y="0.5" width="33" height="33" rx="16.5" fill="#FDFDFD"/>
<rect x="0.5" y="0.5" width="33" height="33" rx="16.5" stroke="#1877F2" stroke-linecap="round"/>
<path d="M18.8332 9.39583C17.811 9.39583 16.8307 9.80189 16.1079 10.5247C15.3851 11.2475 14.979 12.2278 14.979 13.25V15.3958H12.9165C12.8132 15.3958 12.729 15.4792 12.729 15.5833V18.4167C12.729 18.52 12.8123 18.6042 12.9165 18.6042H14.979V24.4167C14.979 24.52 15.0623 24.6042 15.1665 24.6042H17.9998C18.1032 24.6042 18.1873 24.5208 18.1873 24.4167V18.6042H20.2682C20.354 18.6042 20.429 18.5458 20.4498 18.4625L21.1582 15.6292C21.1651 15.6015 21.1657 15.5726 21.1598 15.5447C21.154 15.5168 21.1418 15.4906 21.1243 15.4681C21.1068 15.4456 21.0844 15.4274 21.0588 15.4149C21.0331 15.4024 21.005 15.3959 20.9765 15.3958H18.1873V13.25C18.1873 13.1652 18.204 13.0812 18.2365 13.0028C18.269 12.9245 18.3165 12.8533 18.3765 12.7933C18.4365 12.7334 18.5077 12.6858 18.586 12.6533C18.6644 12.6209 18.7484 12.6042 18.8332 12.6042H20.9998C21.1032 12.6042 21.1873 12.5208 21.1873 12.4167V9.58333C21.1873 9.47999 21.104 9.39583 20.9998 9.39583H18.8332Z" fill="#1877F2"/>
</svg>
