<svg width="34" height="34" viewBox="0 0 34 34" fill="none" xmlns="http://www.w3.org/2000/svg">
<rect x="0.5" y="0.5" width="33" height="33" rx="16.5" fill="#FDFDFD"/>
<rect x="0.5" y="0.5" width="33" height="33" rx="16.5" stroke="#0077B5" stroke-linecap="round"/>
<path d="M12.7835 11.1667C12.7833 11.6087 12.6075 12.0325 12.2948 12.3449C11.9821 12.6573 11.5581 12.8327 11.116 12.8325C10.674 12.8323 10.2502 12.6565 9.93776 12.3437C9.62536 12.031 9.44997 11.607 9.4502 11.165C9.45042 10.723 9.62622 10.2991 9.93894 9.98673C10.2517 9.67432 10.6757 9.49894 11.1177 9.49916C11.5597 9.49938 11.9836 9.67519 12.296 9.98791C12.6084 10.3006 12.7837 10.7246 12.7835 11.1667ZM12.8335 14.0667H9.5002V24.5H12.8335V14.0667ZM18.1002 14.0667H14.7835V24.5H18.0669V19.025C18.0669 15.975 22.0419 15.6917 22.0419 19.025V24.5H25.3335V17.8917C25.3335 12.75 19.4502 12.9417 18.0669 15.4667L18.1002 14.0667Z" fill="#0077B5"/>
</svg>
