<svg width="30" height="30" viewBox="0 0 30 30" fill="none" xmlns="http://www.w3.org/2000/svg">
<rect x="0.5" y="0.5" width="29" height="29" rx="14.5" stroke="#858585"/>
<path fill-rule="evenodd" clip-rule="evenodd" d="M15.6661 20.7304V20.2873C15.6661 19.1463 15.6574 18.001 15.6749 16.86C15.6749 16.5507 15.7142 16.2288 15.8061 15.9321C16.0073 15.2801 16.5803 14.9582 17.337 15.0167C17.9494 15.0627 18.3693 15.4598 18.4786 16.1285C18.518 16.3751 18.5355 16.6301 18.5355 16.8767C18.5398 18.0178 18.5355 19.163 18.5355 20.304V20.7136H20.9806C20.9893 20.6133 20.9981 20.5423 20.9981 20.467C20.9981 18.9122 21.0024 17.3532 20.9981 15.7983C20.9981 15.5225 20.9631 15.2466 20.9062 14.9749C20.6744 13.8339 19.8521 13.0648 18.7017 12.9018C17.5513 12.7388 16.5672 13.0147 15.8192 13.9091C15.793 13.9384 15.7536 13.9593 15.653 14.0387V13.115H13.326V20.7304H15.6705H15.6661ZM9.25816 20.7136H11.6857V13.1108H9.25816V20.7136ZM11.9263 10.674C11.9263 9.89245 11.2658 9.26549 10.4479 9.26967C9.64744 9.27385 9.00884 9.88827 9.00009 10.6615C8.99134 11.4515 9.6387 12.0784 10.4566 12.0868C11.2702 12.0868 11.9307 11.4598 11.9307 10.674H11.9263Z" fill="#858585"/>
</svg>
