<svg width="14" height="14" viewBox="0 0 14 14" fill="none" xmlns="http://www.w3.org/2000/svg">
<path d="M0.291667 6.70833H10.4487C10.4055 6.5835 10.3372 6.468 10.2404 6.37233L7.81725 3.97658C7.70292 3.86342 7.70175 3.6785 7.81492 3.56417C7.92808 3.44925 8.113 3.44808 8.22733 3.56183L10.6505 5.95758C10.9299 6.23408 11.0839 6.60275 11.0833 6.9965C11.0833 6.99708 11.0833 6.99825 11.0833 6.99883C11.0833 6.99883 11.0833 6.99942 11.0833 7C11.0833 7.00117 11.0828 7.00233 11.0828 7.0035C11.0804 7.39375 10.9264 7.76008 10.6482 8.03367L8.22733 10.416C8.17075 10.472 8.09667 10.5 8.02258 10.5C7.94733 10.5 7.87208 10.4708 7.81492 10.4131C7.70175 10.2987 7.7035 10.1132 7.81842 10.0007L10.2392 7.61833C10.3337 7.525 10.4014 7.413 10.4457 7.29167H0.291667C0.130667 7.29167 0 7.161 0 7C0 6.839 0.130667 6.70833 0.291667 6.70833ZM11.375 0H2.625C1.17775 0 0 1.17775 0 2.625V4.95833C0 5.11933 0.130667 5.25 0.291667 5.25C0.452667 5.25 0.583333 5.11933 0.583333 4.95833V2.625C0.583333 1.49917 1.49917 0.583333 2.625 0.583333H11.375C12.5008 0.583333 13.4167 1.49917 13.4167 2.625V11.375C13.4167 12.5008 12.5008 13.4167 11.375 13.4167H2.625C1.49917 13.4167 0.583333 12.5008 0.583333 11.375V9.04167C0.583333 8.88067 0.452667 8.75 0.291667 8.75C0.130667 8.75 0 8.88067 0 9.04167V11.375C0 12.8222 1.17775 14 2.625 14H11.375C12.8222 14 14 12.8222 14 11.375V2.625C14 1.17775 12.8222 0 11.375 0Z" fill="#2B2B2B"/>
</svg>
