<svg width="24" height="24" viewBox="0 0 24 24" fill="none" xmlns="http://www.w3.org/2000/svg">
<rect x="0.5" y="0.5" width="23" height="23" rx="11.5" fill="#CF2F28"/>
<rect x="0.5" y="0.5" width="23" height="23" rx="11.5" stroke="#CF2F28"/>
<path d="M10.1094 6.01218C10.7353 5.92594 11.2615 6.30887 11.5105 6.80659L12.123 8.0313C12.4628 8.71091 12.2676 9.50836 11.7526 10.01C11.4483 10.3061 11.1425 10.6444 10.9651 10.9429C10.9533 10.9642 10.9497 10.989 10.9548 11.0127C11.1188 11.9013 11.721 12.7792 12.2582 13.4087C12.2853 13.4386 12.3205 13.46 12.3596 13.47C12.3987 13.4801 12.4398 13.4786 12.478 13.4655L13.6851 13.0883C14.0103 12.9867 14.3594 12.9919 14.6814 13.1032C15.0034 13.2144 15.2813 13.4259 15.4744 13.7066L16.348 14.9775C16.5849 15.3222 16.7048 15.7898 16.5232 16.2395C16.3611 16.6413 16.0474 17.2207 15.4768 17.6061C14.8846 18.0057 14.0735 18.1575 13.0122 17.7937C11.8263 17.3868 10.7061 16.3665 9.77717 15.0616C8.84277 13.7485 8.07357 12.1084 7.60713 10.3981C7.1662 8.78349 7.43221 7.69635 8.05838 6.99638C8.66239 6.32101 9.52785 6.09205 10.1094 6.01218ZM10.8312 7.14609C10.6924 6.86884 10.4449 6.73188 10.2126 6.76377C9.69609 6.83483 9.04927 7.02705 8.62443 7.5023C8.22176 7.95264 7.94299 8.74584 8.33898 10.1983C8.78386 11.8284 9.51631 13.3862 10.3954 14.6213C11.28 15.8642 12.2852 16.7418 13.2582 17.0756C14.1251 17.3729 14.6824 17.2259 15.0516 16.9769C15.4422 16.713 15.6824 16.2936 15.819 15.9553C15.8816 15.8004 15.8546 15.6 15.7222 15.4075L14.8485 14.1369C14.7474 13.9899 14.6019 13.8791 14.4332 13.8208C14.2646 13.7625 14.0817 13.7597 13.9114 13.8129L12.7043 14.1901C12.3435 14.3027 11.9372 14.2022 11.6806 13.9016C11.1215 13.2466 10.4091 12.242 10.2078 11.1503C10.1693 10.9457 10.2064 10.7341 10.3122 10.5548C10.5424 10.1679 10.9068 9.77346 11.2223 9.46615C11.5306 9.16612 11.618 8.71972 11.4437 8.3708L10.8312 7.14609Z" fill="#FDFDFD"/>
</svg>
