<svg width="24" height="24" viewBox="0 0 24 24" fill="none" xmlns="http://www.w3.org/2000/svg">
<rect x="0.5" y="0.5" width="23" height="23" rx="11.5" fill="#CF2F28"/>
<rect x="0.5" y="0.5" width="23" height="23" rx="11.5" stroke="#CF2F28"/>
<path d="M7.78061 16C7.51737 16 7.29775 15.912 7.12175 15.736C6.94575 15.56 6.85756 15.3402 6.85718 15.0766V8.92343C6.85718 8.66019 6.94537 8.44057 7.12175 8.26457C7.29813 8.08857 7.51756 8.00038 7.78003 8H16.22C16.4829 8 16.7023 8.08819 16.8783 8.26457C17.0543 8.44095 17.1425 8.66057 17.1429 8.92343V15.0771C17.1429 15.34 17.0547 15.5596 16.8783 15.736C16.7019 15.9124 16.4825 16.0004 16.22 16H7.78061ZM16.5715 9.07714L12.256 11.9023C12.2157 11.9232 12.1749 11.941 12.1337 11.9554C12.0922 11.9695 12.0477 11.9766 12 11.9766C11.9524 11.9766 11.9078 11.9695 11.8663 11.9554C11.8248 11.9413 11.784 11.9236 11.744 11.9023L7.42861 9.07657V15.0766C7.42861 15.1794 7.46156 15.2638 7.52746 15.3297C7.59337 15.3956 7.67775 15.4286 7.78061 15.4286H16.22C16.3225 15.4286 16.4067 15.3956 16.4726 15.3297C16.5385 15.2638 16.5715 15.1794 16.5715 15.0766V9.07714ZM12 11.4286L16.3955 8.57143H7.60461L12 11.4286ZM7.42861 9.19771V8.73429V8.75371V8.57143V8.75429V8.72457V9.19771Z" fill="#FDFDFD"/>
</svg>
