<svg width="25" height="26" viewBox="0 0 25 26" fill="none" xmlns="http://www.w3.org/2000/svg">
<path d="M11.75 5.86499C11.5511 5.86499 11.3603 5.94559 11.2197 6.08905C11.079 6.23252 11 6.4271 11 6.62999C11 6.83288 11.079 7.02746 11.2197 7.17093C11.3603 7.31439 11.5511 7.39499 11.75 7.39499C13.0098 7.39499 14.218 7.90544 15.1088 8.81406C15.9996 9.72267 16.5 10.955 16.5 12.24C16.5 12.4429 16.579 12.6375 16.7197 12.7809C16.8603 12.9244 17.0511 13.005 17.25 13.005C17.4489 13.005 17.6397 12.9244 17.7803 12.7809C17.921 12.6375 18 12.4429 18 12.24C18 11.4027 17.8383 10.5737 17.5242 9.80015C17.21 9.02663 16.7495 8.32381 16.1691 7.73182C15.5886 7.13984 14.8995 6.67028 14.1411 6.34997C13.3827 6.02965 12.5698 5.86486 11.749 5.86499" fill="#CF2F28"/>
<path fill-rule="evenodd" clip-rule="evenodd" d="M2.5 12.239C2.5 7.02785 6.642 2.80505 11.75 2.80505C16.858 2.80505 21 7.02785 21 12.238C21.0042 14.4774 20.2232 16.6444 18.798 18.3478L22.279 21.8974C22.3507 21.968 22.4078 22.0523 22.4472 22.1456C22.4865 22.239 22.5073 22.3393 22.5082 22.4409C22.5091 22.5425 22.4902 22.6432 22.4525 22.7373C22.4148 22.8313 22.3592 22.9167 22.2888 22.9886C22.2184 23.0605 22.1347 23.1173 22.0425 23.1558C21.9504 23.1943 21.8516 23.2137 21.7521 23.2129C21.6525 23.2121 21.554 23.191 21.4625 23.151C21.371 23.1109 21.2882 23.0527 21.219 22.9796L17.737 19.429C16.0672 20.8806 13.9439 21.6757 11.75 21.671C6.642 21.671 2.5 17.4492 2.5 12.239ZM11.75 4.33505C10.722 4.31821 9.70108 4.51017 8.74657 4.89977C7.79207 5.28937 6.92312 5.86881 6.19033 6.60434C5.45755 7.33987 4.87558 8.21678 4.47834 9.18399C4.08109 10.1512 3.87651 11.1894 3.87651 12.238C3.87651 13.2867 4.08109 14.3248 4.47834 15.292C4.87558 16.2592 5.45755 17.1362 6.19033 17.8717C6.92312 18.6072 7.79207 19.1867 8.74657 19.5763C9.70108 19.9659 10.722 20.1578 11.75 20.141C12.778 20.1578 13.7989 19.9659 14.7534 19.5763C15.7079 19.1867 16.5769 18.6072 17.3097 17.8717C18.0424 17.1362 18.6244 16.2592 19.0217 15.292C19.4189 14.3248 19.6235 13.2867 19.6235 12.238C19.6235 11.1894 19.4189 10.1512 19.0217 9.18399C18.6244 8.21678 18.0424 7.33987 17.3097 6.60434C16.5769 5.86881 15.7079 5.28937 14.7534 4.89977C13.7989 4.51017 12.778 4.31821 11.75 4.33505Z" fill="#CF2F28"/>
</svg>
