<svg width="34" height="35" viewBox="0 0 34 35" fill="none" xmlns="http://www.w3.org/2000/svg">
<rect x="0.5" y="1" width="33" height="33" rx="16.5" fill="#FDFDFD"/>
<rect x="0.5" y="1" width="33" height="33" rx="16.5" stroke="#CF2F28" stroke-linecap="round"/>
<path d="M23.252 10.9157L10.9048 15.0325C10.8542 15.0493 10.81 15.0811 10.7779 15.1237C10.7459 15.1662 10.7275 15.2175 10.7253 15.2707C10.7231 15.324 10.7372 15.3766 10.7656 15.4217C10.794 15.4667 10.8355 15.5021 10.8845 15.523L15.422 17.4677C15.4458 17.478 15.4718 17.482 15.4976 17.4792C15.5234 17.4765 15.548 17.4671 15.569 17.452L20.0173 14.2735C20.1553 14.176 20.3248 14.3455 20.2273 14.4835L17.0488 18.9317C17.0339 18.9528 17.0247 18.9773 17.0221 19.0029C17.0195 19.0285 17.0235 19.0544 17.0338 19.078L18.9778 23.6155C18.9986 23.6645 19.0339 23.706 19.0789 23.7345C19.1239 23.763 19.1765 23.7771 19.2297 23.775C19.283 23.7729 19.3343 23.7546 19.3769 23.7227C19.4195 23.6907 19.4514 23.6465 19.4683 23.596L23.585 11.248C23.6005 11.2017 23.6028 11.152 23.5916 11.1045C23.5804 11.057 23.5562 11.0136 23.5217 10.979C23.4872 10.9445 23.4437 10.9203 23.3962 10.9091C23.3487 10.898 23.2983 10.9002 23.252 10.9157Z" fill="#CF2F28"/>
</svg>
