<svg width="26" height="26" viewBox="0 0 26 26" fill="none" xmlns="http://www.w3.org/2000/svg">
<rect x="1" y="1" width="24" height="24" rx="12" fill="#F7F7F7"/>
<circle cx="13" cy="13" r="12.5" stroke="#00D257"/>
<path d="M20.5 13C20.5 17.1421 17.1421 20.5 13 20.5C8.85786 20.5 5.5 17.1421 5.5 13C5.5 8.85786 8.85786 5.5 13 5.5C17.1421 5.5 20.5 8.85786 20.5 13Z" fill="#00D257"/>
<path fill-rule="evenodd" clip-rule="evenodd" d="M1 13C1 9.8174 2.26428 6.76516 4.51472 4.51472C6.76516 2.26428 9.8174 1 13 1C16.1826 1 19.2348 2.26428 21.4853 4.51472C23.7357 6.76516 25 9.8174 25 13C25 16.1826 23.7357 19.2348 21.4853 21.4853C19.2348 23.7357 16.1826 25 13 25C9.8174 25 6.76516 23.7357 4.51472 21.4853C2.26428 19.2348 1 16.1826 1 13ZM12.3152 18.136L19.224 9.4992L17.976 8.5008L12.0848 15.8624L7.912 12.3856L6.888 13.6144L12.3152 18.136Z" fill="#F1FFF7"/>
</svg>
