<svg width="34" height="34" viewBox="0 0 34 34" fill="none" xmlns="http://www.w3.org/2000/svg">
<rect x="0.5" y="0.5" width="33" height="33" rx="16.5" fill="#FDFDFD"/>
<rect x="0.5" y="0.5" width="33" height="33" rx="16.5" stroke="#FF0000" stroke-linecap="round"/>
<path d="M15.3332 19.5L19.6582 17L15.3332 14.5V19.5ZM24.9665 12.975C25.0748 13.3667 25.1498 13.8917 25.1998 14.5583C25.2582 15.225 25.2832 15.8 25.2832 16.3L25.3332 17C25.3332 18.825 25.1998 20.1667 24.9665 21.025C24.7582 21.775 24.2748 22.2583 23.5248 22.4667C23.1332 22.575 22.4165 22.65 21.3165 22.7C20.2332 22.7583 19.2415 22.7833 18.3248 22.7833L16.9998 22.8333C13.5082 22.8333 11.3332 22.7 10.4748 22.4667C9.72484 22.2583 9.2415 21.775 9.03317 21.025C8.92484 20.6333 8.84984 20.1083 8.79984 19.4417C8.7415 18.775 8.7165 18.2 8.7165 17.7L8.6665 17C8.6665 15.175 8.79984 13.8333 9.03317 12.975C9.2415 12.225 9.72484 11.7417 10.4748 11.5333C10.8665 11.425 11.5832 11.35 12.6832 11.3C13.7665 11.2417 14.7582 11.2167 15.6748 11.2167L16.9998 11.1667C20.4915 11.1667 22.6665 11.3 23.5248 11.5333C24.2748 11.7417 24.7582 12.225 24.9665 12.975Z" fill="#FF0000"/>
</svg>
