<svg width="50" height="50" viewBox="0 0 50 50" fill="none" xmlns="http://www.w3.org/2000/svg">
<g clip-path="url(#clip0_698_1543)">
<path d="M25 50C38.8071 50 50 38.8071 50 25C50 11.1929 38.8071 0 25 0C11.1929 0 0 11.1929 0 25C0 38.8071 11.1929 50 25 50Z" fill="#E8E8E8"/>
<path d="M31.75 37C33.1424 37 34.4777 36.4469 35.4623 35.4623C36.4469 34.4777 37 33.1424 37 31.75C37 30.3576 36.4469 29.0223 35.4623 28.0377C34.4777 27.0531 33.1424 26.5 31.75 26.5C30.3576 26.5 29.0223 27.0531 28.0377 28.0377C27.0531 29.0223 26.5 30.3576 26.5 31.75C26.5 33.1424 27.0531 34.4777 28.0377 35.4623C29.0223 36.4469 30.3576 37 31.75 37ZM34.2685 30.2605L32.266 33.5995C32.178 33.7462 32.0577 33.8709 31.9143 33.9641C31.7708 34.0573 31.608 34.1166 31.4382 34.1374C31.2684 34.1582 31.0961 34.1401 30.9344 34.0843C30.7727 34.0285 30.6258 33.9366 30.505 33.8155L29.344 32.656C29.2032 32.5152 29.1241 32.3242 29.1241 32.125C29.1241 31.9258 29.2032 31.7348 29.344 31.594C29.4848 31.4532 29.6758 31.3741 29.875 31.3741C30.0742 31.3741 30.2652 31.4532 30.406 31.594L31.2265 32.416L32.9815 29.4895C33.0321 29.405 33.0989 29.3313 33.178 29.2726C33.2571 29.2139 33.347 29.1713 33.4426 29.1474C33.5381 29.1234 33.6375 29.1185 33.7349 29.133C33.8323 29.1474 33.926 29.1809 34.0105 29.2315C34.095 29.2821 34.1687 29.3489 34.2274 29.428C34.2861 29.5071 34.3287 29.597 34.3526 29.6926C34.3766 29.7881 34.3815 29.8875 34.367 29.9849C34.3526 30.0823 34.3191 30.176 34.2685 30.2605ZM29.5 20.5C29.5 21.6935 29.0259 22.8381 28.182 23.682C27.3381 24.5259 26.1935 25 25 25C23.8065 25 22.6619 24.5259 21.818 23.682C20.9741 22.8381 20.5 21.6935 20.5 20.5C20.5 19.3065 20.9741 18.1619 21.818 17.318C22.6619 16.4741 23.8065 16 25 16C26.1935 16 27.3381 16.4741 28.182 17.318C29.0259 18.1619 29.5 19.3065 29.5 20.5ZM25 23.5C25.7956 23.5 26.5587 23.1839 27.1213 22.6213C27.6839 22.0587 28 21.2956 28 20.5C28 19.7044 27.6839 18.9413 27.1213 18.3787C26.5587 17.8161 25.7956 17.5 25 17.5C24.2044 17.5 23.4413 17.8161 22.8787 18.3787C22.3161 18.9413 22 19.7044 22 20.5C22 21.2956 22.3161 22.0587 22.8787 22.6213C23.4413 23.1839 24.2044 23.5 25 23.5Z" fill="#3F3F3F"/>
<path d="M25.384 34C25.2122 33.5128 25.097 33.0075 25.0405 32.494H17.5C17.5015 32.125 17.731 31.015 18.748 29.998C19.726 29.02 21.5665 28 25 28C25.39 28 25.76 28.0125 26.11 28.0375C26.449 27.526 26.854 27.0625 27.316 26.6605C26.616 26.5555 25.844 26.502 25 26.5C17.5 26.5 16 31 16 32.5C16 34 17.5 34 17.5 34H25.384Z" fill="#3F3F3F"/>
</g>
<defs>
<clipPath id="clip0_698_1543">
<rect width="50" height="50" fill="white"/>
</clipPath>
</defs>
</svg>
