<svg width="50" height="50" viewBox="0 0 50 50" fill="none" xmlns="http://www.w3.org/2000/svg">
<g clip-path="url(#clip0_698_1536)">
<path d="M25 50C38.8071 50 50 38.8071 50 25C50 11.1929 38.8071 0 25 0C11.1929 0 0 11.1929 0 25C0 38.8071 11.1929 50 25 50Z" fill="#E8E8E8"/>
<path d="M35.5 34C35.5 34 37 34 37 32.5C37 31 35.5 26.5 29.5 26.5C23.5 26.5 22 31 22 32.5C22 34 23.5 34 23.5 34H35.5ZM23.533 32.5L23.5 32.494C23.5015 32.098 23.7505 30.949 24.64 29.914C25.468 28.9435 26.923 28 29.5 28C32.0755 28 33.5305 28.945 34.36 29.914C35.2495 30.949 35.497 32.0995 35.5 32.494L35.488 32.497L35.467 32.5H23.533ZM29.5 23.5C30.2956 23.5 31.0587 23.1839 31.6213 22.6213C32.1839 22.0587 32.5 21.2956 32.5 20.5C32.5 19.7044 32.1839 18.9413 31.6213 18.3787C31.0587 17.8161 30.2956 17.5 29.5 17.5C28.7044 17.5 27.9413 17.8161 27.3787 18.3787C26.8161 18.9413 26.5 19.7044 26.5 20.5C26.5 21.2956 26.8161 22.0587 27.3787 22.6213C27.9413 23.1839 28.7044 23.5 29.5 23.5ZM34 20.5C34 21.0909 33.8836 21.6761 33.6575 22.2221C33.4313 22.768 33.0998 23.2641 32.682 23.682C32.2641 24.0998 31.768 24.4313 31.2221 24.6575C30.6761 24.8836 30.0909 25 29.5 25C28.9091 25 28.3239 24.8836 27.7779 24.6575C27.232 24.4313 26.7359 24.0998 26.318 23.682C25.9002 23.2641 25.5687 22.768 25.3425 22.2221C25.1164 21.6761 25 21.0909 25 20.5C25 19.3065 25.4741 18.1619 26.318 17.318C27.1619 16.4741 28.3065 16 29.5 16C30.6935 16 31.8381 16.4741 32.682 17.318C33.5259 18.1619 34 19.3065 34 20.5ZM23.404 26.92C22.8036 26.7324 22.1853 26.6082 21.559 26.5495C21.2071 26.5152 20.8536 26.4987 20.5 26.5C14.5 26.5 13 31 13 32.5C13 33.5 13.5 34 14.5 34H20.824C20.6017 33.5317 20.4908 33.0183 20.5 32.5C20.5 30.985 21.0655 29.437 22.135 28.144C22.4995 27.703 22.924 27.2905 23.404 26.92ZM20.38 28C19.4928 29.3342 19.0133 30.8978 19 32.5H14.5C14.5 32.11 14.746 30.955 15.64 29.914C16.4575 28.96 17.878 28.03 20.38 28.0015V28ZM15.25 21.25C15.25 20.0565 15.7241 18.9119 16.568 18.068C17.4119 17.2241 18.5565 16.75 19.75 16.75C20.9435 16.75 22.0881 17.2241 22.932 18.068C23.7759 18.9119 24.25 20.0565 24.25 21.25C24.25 22.4435 23.7759 23.5881 22.932 24.432C22.0881 25.2759 20.9435 25.75 19.75 25.75C18.5565 25.75 17.4119 25.2759 16.568 24.432C15.7241 23.5881 15.25 22.4435 15.25 21.25ZM19.75 18.25C18.9544 18.25 18.1913 18.5661 17.6287 19.1287C17.0661 19.6913 16.75 20.4544 16.75 21.25C16.75 22.0456 17.0661 22.8087 17.6287 23.3713C18.1913 23.9339 18.9544 24.25 19.75 24.25C20.5456 24.25 21.3087 23.9339 21.8713 23.3713C22.4339 22.8087 22.75 22.0456 22.75 21.25C22.75 20.4544 22.4339 19.6913 21.8713 19.1287C21.3087 18.5661 20.5456 18.25 19.75 18.25Z" fill="#3F3F3F"/>
</g>
<defs>
<clipPath id="clip0_698_1536">
<rect width="50" height="50" fill="white"/>
</clipPath>
</defs>
</svg>
