<svg width="10" height="10" viewBox="0 0 10 10" fill="none" xmlns="http://www.w3.org/2000/svg">
<g clip-path="url(#clip0_421_747)">
<path fill-rule="evenodd" clip-rule="evenodd" d="M5 0L4.8545 0.2518L3.4482 2.6846H4.1596V4.9476C4.47442 5.29841 4.75565 5.67797 4.9996 6.0813C5.24461 5.67873 5.52606 5.29951 5.8404 4.9484V2.6846H6.5518L5 0ZM3.089 3.4348L0 3.7057L0.1666 3.9439L1.7764 6.2473L2.0274 5.7096C2.7411 6.2716 3.7308 7.3713 3.9557 9.2588C3.9998 8.7999 4.0796 8.3444 4.2062 7.9008C4.343 7.4081 4.535 6.9329 4.7727 6.4816C4.1472 5.3731 3.327 4.626 2.7373 4.1885L3.089 3.4348ZM6.911 3.4348L7.2627 4.1885C6.1872 4.986 4.3443 6.8105 4.3168 9.9854L5.9973 10C6.0176 7.6524 7.1701 6.3415 7.9727 5.7096L8.2237 6.2473L10 3.7057L9.7104 3.6803L6.911 3.4348Z" fill="#007AFF"/>
</g>
<defs>
<clipPath id="clip0_421_747">
<rect width="10" height="10" fill="white"/>
</clipPath>
</defs>
</svg>
