<svg width="1240" height="428" viewBox="0 0 1240 428" fill="none" xmlns="http://www.w3.org/2000/svg">
<g clip-path="url(#clip0_382_5977)">
<rect width="1240" height="428" fill="#F7F7F7"/>
<g opacity="0.3">
<path d="M179.293 441.617H267.295V260.085H269.796V254.896H264.338V248.255H221.04V238.164H204.498L202.027 231.575H197.94V219.802H197.028H196.117V231.575H188.534V238.164V245.759V248.255H182.251V254.896H176.792V260.085H179.293V441.617Z" fill="#E5E7E9"/>
<path d="M198.666 218.164C198.666 217.259 197.933 216.526 197.028 216.526C196.124 216.526 195.391 217.259 195.391 218.164C195.391 219.068 196.124 219.802 197.028 219.802C197.933 219.802 198.666 219.068 198.666 218.164Z" fill="#E5E7E9"/>
<path d="M996.04 452.245V208.193L887.69 185.702L899.562 452.245H581.621V301.459H575.769V211.228H560.661V187.06H555.264V151.612H525.527V125.559H522.882V151.612H517.057V119H514.41V151.612H495.611V211.228H485.901V301.459H477.577V452.245H393.029V251.526H394.488V249.205H384.082V235.258H385.428V233.025H375.876V225.007H376.734V223.293H372.621V215.718H368.696H368.085V188.679H367.659H367.119H366.574V215.718H364.739V200.645H364.313H363.773H363.228V215.718H358.69V223.293H353.944V225.007H355.435V233.025H345.884V235.258H347.229V249.205H336.823V251.526H338.284V452.245H56.3028V479.62H1207.27V452.245H996.04Z" fill="#E5E7E9"/>
</g>
<path d="M1186.58 476.887V452.244H1151.94L1138.82 355.247H1136.86V343.594H1129.97V355.247H1128.26V350.888H1123.44V355.247H1113.46V345.088H1110.7V338.028H1091.07V345.088H1088.32V355.247H1085.56V413.504H1068.11V265.688H1062.37V233.27H1060.54V265.688H1056.17V220.719H1054.34V265.688H1050.55V241.346H1048.71V265.688H1014.85V370.61H977.204V438.582H942.043L914.123 387.12C918.83 384.409 923.255 381.15 927.317 377.371L933.043 383.481C931.813 384.556 931.035 386.133 931.035 387.894C931.035 391.13 933.659 393.754 936.896 393.754C940.132 393.754 942.756 391.13 942.756 387.894C942.756 384.657 940.132 382.033 936.896 382.033C935.654 382.033 934.505 382.42 933.558 383.078L927.791 376.925C928.279 376.463 928.763 375.994 929.24 375.517C935.282 369.474 940.12 362.55 943.637 355.034L950.013 357.978C949.897 358.437 949.836 358.917 949.836 359.413C949.836 362.649 952.459 365.273 955.696 365.273C958.932 365.273 961.556 362.649 961.556 359.413C961.556 356.176 958.932 353.553 955.696 353.553C953.186 353.553 951.045 355.131 950.21 357.351L943.91 354.443C947.795 345.941 949.994 336.7 950.34 327.13L957.204 327.354C957.288 330.517 959.877 333.056 963.06 333.056C966.297 333.056 968.92 330.432 968.92 327.195C968.92 323.959 966.297 321.335 963.06 321.335C959.989 321.335 957.473 323.698 957.222 326.703L950.359 326.48C950.376 325.808 950.387 325.134 950.387 324.459C950.387 315.917 948.913 307.602 946.087 299.804L951.821 297.693C952.721 299.77 954.791 301.225 957.199 301.225C960.435 301.225 963.059 298.601 963.059 295.364C963.059 292.128 960.435 289.504 957.199 289.504C953.962 289.504 951.339 292.128 951.339 295.364C951.339 295.961 951.428 296.538 951.595 297.082L945.863 299.192C942.597 290.431 937.617 282.336 931.094 275.324L935.58 271.12C936.631 272.124 938.056 272.742 939.625 272.742C942.862 272.742 945.485 270.12 945.485 266.882C945.485 263.646 942.862 261.022 939.625 261.022C936.389 261.022 933.765 263.646 933.765 266.882C933.765 268.315 934.28 269.627 935.134 270.644L930.648 274.848C930.186 274.361 929.717 273.877 929.24 273.4C922.447 266.606 914.538 261.334 905.928 257.752L908.396 251.743C908.956 251.92 909.552 252.018 910.17 252.018C913.406 252.018 916.03 249.394 916.03 246.158C916.03 242.921 913.406 240.297 910.17 240.297C906.934 240.297 904.31 242.921 904.31 246.158C904.31 248.546 905.738 250.597 907.787 251.511L905.326 257.505C897.622 254.383 889.368 252.606 880.854 252.298L881.121 244.085C881.183 244.087 881.245 244.089 881.307 244.089C884.543 244.089 887.167 241.466 887.167 238.229C887.167 234.993 884.543 232.369 881.307 232.369C878.07 232.369 875.447 234.993 875.447 238.229C875.447 241.182 877.63 243.623 880.471 244.028L880.202 252.277C879.53 252.258 878.857 252.248 878.182 252.248C869.985 252.248 861.997 253.605 854.474 256.212L852.112 249.509C854.244 248.632 855.744 246.537 855.744 244.088C855.744 240.852 853.12 238.228 849.884 238.228C846.647 238.228 844.024 240.852 844.024 244.088C844.024 247.324 846.647 249.948 849.884 249.948C850.443 249.948 850.984 249.868 851.496 249.722L853.86 256.428C844.736 259.682 836.312 264.784 829.048 271.542L824.765 266.972C825.723 265.928 826.309 264.538 826.309 263.01C826.309 259.774 823.685 257.15 820.449 257.15C817.212 257.15 814.589 259.773 814.589 263.01C814.589 266.247 817.212 268.87 820.449 268.87C821.923 268.87 823.269 268.326 824.299 267.427L828.574 271.989C828.086 272.451 827.602 272.921 827.125 273.398C821.083 279.44 816.245 286.365 812.728 293.882L807.286 291.369C807.484 290.782 807.591 290.155 807.591 289.503C807.591 286.267 804.968 283.643 801.731 283.643C798.495 283.643 795.871 286.267 795.871 289.503C795.871 292.739 798.495 295.363 801.731 295.363C804.084 295.363 806.111 293.977 807.044 291.975L812.454 294.473C808.571 302.974 806.37 312.217 806.025 321.785L799.04 321.559C798.953 318.397 796.366 315.861 793.184 315.861C789.947 315.861 787.324 318.485 787.324 321.722C787.324 324.958 789.947 327.582 793.184 327.582C796.256 327.582 798.774 325.218 799.022 322.211L806.006 322.437C805.988 323.109 805.977 323.783 805.977 324.458C805.977 332.999 807.452 341.315 810.278 349.111L804.543 351.223C803.644 349.145 801.574 347.691 799.164 347.691C795.928 347.691 793.304 350.315 793.304 353.551C793.304 356.788 795.928 359.411 799.164 359.411C802.401 359.411 805.025 356.788 805.025 353.551C805.025 352.955 804.935 352.378 804.768 351.835L810.5 349.725C813.765 358.486 818.745 366.579 825.269 373.593L820.784 377.797C819.732 376.793 818.307 376.175 816.738 376.175C813.502 376.175 810.878 378.797 810.878 382.035C810.878 385.271 813.502 387.895 816.738 387.895C819.974 387.895 822.598 385.271 822.598 382.035C822.598 380.602 822.083 379.29 821.229 378.273L825.717 374.069C826.179 374.556 826.648 375.04 827.125 375.517C831.7 380.091 836.781 383.977 842.241 387.12L814.322 438.582H791.709V403.693H782.492V337.445H786.077V336.005H706.87V337.445H710.454V370.855H702.69L695.281 408.933V284.055H692.03V238.83H675.665V221.611H666.91V207.149H663.837V182.356H663.043V207.149H659.971V221.612H651.216V238.831H634.977V284.056H631.601V366.162H606.422V438.582H522.885V298.553H529.599V296.35H522.885V292.405H514.375V285.925H444.777V292.405H436.267V296.35H429.553V298.553H436.267V385.722H424.883V369.366H354.655V389.338H339.343V426.529H314.55V304.972H306.285V296.706H299.742V274.84H298.364V296.706H295.264V269.33H293.887V296.706H290.078V304.972H288.033V426.529H236.724V355.247H239.135V350.426H223.295V337.341H215.719V350.426H208.831V337.341H201.944V350.426H188.547V337.341H147.535V350.426H137.959V355.247H143.403V382.107H128.251V442.714H107.453V426.529H84.3001V461.826H56.3031V476.887H15.0083V520.051H1223.47V476.887H1186.58ZM913.193 385.401L903.524 367.577C906.623 365.749 909.51 363.595 912.135 361.165L925.984 375.946C922.046 379.609 917.755 382.771 913.193 385.401ZM876.996 328.215C877.233 328.289 877.48 328.342 877.733 328.372L876.267 373.467C870.485 373.243 864.958 372.015 859.854 369.951L876.996 328.215ZM859.253 369.705C857.602 369.011 855.997 368.229 854.444 367.365L875.959 327.709C876.097 327.804 876.242 327.889 876.393 327.967L859.253 369.705ZM878.384 328.394C878.659 328.38 878.927 328.338 879.185 328.27L894.183 370.825C889.167 372.561 883.784 373.506 878.186 373.506C877.762 373.506 877.339 373.501 876.917 373.49L878.384 328.394ZM879.797 328.053C880.013 327.956 880.219 327.841 880.411 327.709L901.926 367.365C899.653 368.629 897.27 369.715 894.796 370.61L879.797 328.053ZM883.418 330.517L911.468 360.452C908.903 362.825 906.084 364.929 903.057 366.718L883.418 330.517ZM882.19 328.257L881.38 326.762C881.464 326.645 881.541 326.523 881.613 326.399L922.575 345.307C919.959 350.852 916.338 355.832 911.944 360.008L882.19 328.257ZM881.888 325.809C881.993 325.524 882.063 325.224 882.1 324.912L927.195 326.378C926.943 332.896 925.415 339.091 922.852 344.72L881.888 325.809ZM882.12 324.261C882.105 323.967 882.058 323.681 881.982 323.408L924.326 307.818C926.207 313.017 927.234 318.621 927.234 324.459C927.234 324.883 927.229 325.305 927.218 325.728L882.12 324.261ZM881.758 322.796C881.627 322.516 881.464 322.253 881.273 322.012L914.18 291.177C918.449 295.79 921.843 301.221 924.099 307.207L881.758 322.796ZM880.828 321.536C880.574 321.305 880.288 321.109 879.979 320.949L897.119 279.211C903.436 281.865 909.086 285.803 913.736 290.7L880.828 321.536ZM879.376 320.702C879.138 320.628 878.892 320.575 878.638 320.545L880.105 275.452C885.885 275.674 891.413 276.903 896.517 278.967L879.376 320.702ZM877.988 320.523C877.713 320.537 877.444 320.579 877.187 320.645L862.188 278.09C867.204 276.354 872.586 275.41 878.186 275.41C878.61 275.41 879.033 275.415 879.454 275.426L877.988 320.523ZM876.574 320.864C876.275 320.998 875.994 321.17 875.739 321.372L844.903 288.465C849.68 284.045 855.335 280.561 861.574 278.308L876.574 320.864ZM875.264 321.815C875.07 322.029 874.9 322.265 874.758 322.517L833.797 303.607C836.411 298.063 840.034 293.082 844.429 288.907L875.264 321.815ZM874.483 323.108C874.379 323.394 874.308 323.693 874.272 324.005L829.177 322.539C829.429 316.021 830.956 309.826 833.519 304.197L874.483 323.108ZM874.251 324.657C874.266 324.951 874.314 325.236 874.39 325.51L832.046 341.099C830.165 335.9 829.137 330.298 829.137 324.458C829.137 324.034 829.143 323.611 829.154 323.189L874.251 324.657ZM874.613 326.121C874.719 326.348 874.845 326.563 874.991 326.763L874.723 327.258L842.191 357.74C837.922 353.127 834.529 347.696 832.272 341.71L874.613 326.121ZM873.738 329.071L853.314 366.716C849.367 364.385 845.773 361.519 842.634 358.216L873.738 329.071ZM853.978 368.223C855.562 369.103 857.198 369.901 858.881 370.607L851.182 389.355C848.835 388.377 846.542 387.272 844.311 386.041L853.978 368.223ZM859.484 370.855C864.693 372.963 870.335 374.215 876.235 374.443L875.578 394.663C867.302 394.364 859.277 392.636 851.787 389.601L859.484 370.855ZM876.886 374.467C877.318 374.478 877.751 374.485 878.186 374.485C883.898 374.485 889.39 373.52 894.507 371.747L901.243 390.858C893.926 393.392 886.157 394.712 878.186 394.712C877.532 394.712 876.879 394.702 876.229 394.683L876.886 374.467ZM895.122 371.53C897.646 370.619 900.076 369.511 902.393 368.223L912.06 386.042C908.785 387.849 905.375 389.387 901.858 390.642L895.122 371.53ZM927.861 374.134C927.399 374.596 926.932 375.05 926.459 375.498L912.612 360.721C917.098 356.46 920.795 351.376 923.464 345.718L941.867 354.214C938.445 361.523 933.738 368.259 927.861 374.134ZM942.139 353.623L923.737 345.128C926.354 339.383 927.913 333.061 928.169 326.408L948.391 327.065C948.054 336.371 945.914 345.357 942.139 353.623ZM948.438 324.459C948.438 325.112 948.429 325.764 948.411 326.416L928.195 325.759C928.206 325.327 928.211 324.893 928.211 324.459C928.211 318.5 927.162 312.784 925.243 307.48L944.257 300.481C947.005 308.065 948.438 316.151 948.438 324.459ZM929.672 276.66C936.015 283.48 940.857 291.35 944.032 299.868L925.015 306.871C922.713 300.761 919.249 295.218 914.892 290.51L929.672 276.66ZM927.861 274.782C928.324 275.244 928.778 275.712 929.226 276.185L914.448 290.031C909.702 285.035 903.937 281.015 897.49 278.308L905.189 259.561C913.562 263.047 921.255 268.175 927.861 274.782ZM880.793 254.253C889.07 254.552 897.094 256.28 904.585 259.314L896.886 278.062C891.677 275.954 886.035 274.702 880.135 274.474L880.793 254.253ZM878.186 254.206C878.839 254.206 879.492 254.216 880.143 254.234L879.485 274.45C879.053 274.439 878.621 274.434 878.186 274.434C872.473 274.434 866.982 275.399 861.864 277.17L855.129 258.059C862.446 255.525 870.214 254.206 878.186 254.206ZM854.513 258.275L861.249 277.387C854.882 279.685 849.111 283.24 844.236 287.752L830.387 272.971C837.451 266.402 845.643 261.441 854.513 258.275ZM828.51 274.782C828.972 274.32 829.441 273.866 829.913 273.417L843.761 288.195C839.275 292.456 835.578 297.54 832.909 303.199L814.506 294.703C817.927 287.394 822.633 280.658 828.51 274.782ZM814.232 295.294L832.634 303.789C830.017 309.534 828.458 315.857 828.202 322.509L807.98 321.852C808.318 312.548 810.458 303.561 814.232 295.294ZM807.933 324.459C807.933 323.806 807.942 323.153 807.96 322.502L828.177 323.159C828.166 323.59 828.16 324.024 828.16 324.459C828.16 330.417 829.209 336.133 831.128 341.438L812.114 348.439C809.367 340.852 807.933 332.766 807.933 324.459ZM826.699 372.257C820.357 365.437 815.514 357.567 812.338 349.049L831.355 342.046C833.657 348.156 837.121 353.699 841.478 358.407L826.699 372.257ZM828.51 374.134C828.048 373.671 827.594 373.204 827.145 372.731L841.923 358.884C845.132 362.264 848.81 365.194 852.849 367.577L843.179 385.401C837.88 382.346 832.95 378.575 828.51 374.134ZM843.38 387.759C845.673 389.025 848.03 390.16 850.441 391.164L847.973 397.173C847.413 396.996 846.817 396.899 846.199 396.899C842.962 396.899 840.339 399.523 840.339 402.759C840.339 405.996 842.962 408.62 846.199 408.62C849.435 408.62 852.059 405.996 852.059 402.759C852.059 400.371 850.63 398.32 848.581 397.406L851.043 391.412C858.747 394.534 867.001 396.311 875.514 396.619L875.314 402.764C872.141 402.835 869.589 405.429 869.589 408.62C869.589 411.856 872.213 414.48 875.449 414.48C878.686 414.48 881.31 411.856 881.31 408.62C881.31 405.557 878.96 403.045 875.964 402.784L876.165 396.638C876.837 396.657 877.511 396.666 878.186 396.666C886.382 396.666 894.37 395.31 901.893 392.702L903.999 398.676C902.006 399.611 900.623 401.636 900.623 403.983C900.623 407.22 903.247 409.843 906.484 409.843C909.72 409.843 912.344 407.22 912.344 403.983C912.344 400.747 909.72 398.123 906.484 398.123C905.826 398.123 905.195 398.233 904.604 398.433L902.507 392.487C906.122 391.196 909.625 389.617 912.991 387.761L940.564 438.583H815.806L843.38 387.759Z" fill="#E5E7E9"/>
<path d="M1049.11 296.598C1049.11 295.694 1048.49 294.96 1047.73 294.96C1046.97 294.96 1046.36 295.694 1046.36 296.598C1046.36 297.503 1046.97 298.235 1047.73 298.235C1048.49 298.236 1049.11 297.503 1049.11 296.598Z" fill="#E5E7E9"/>
<path d="M1198.94 495.645L1190.41 438.582H1172.97V391.23H1175.12V386.946H1166.65V368.502H1165.62V386.946H1159.77V371.836H1158.73V386.946H1123.44V391.23H1125.85V487.306H1085.56V444.271H1062.62V338.519H1064.72V333.331H1060.13V326.688H1054.86V324.192V316.599V310.009H1048.5V298.236H1047.73H1046.97V310.009H1043.54L1041.46 316.599H1027.58V326.688H991.232V333.331H986.65V338.519H988.749V407.325H958.34V474.931L924.597 459.98V394.361H930.042V389.54H920.464V376.454H879.454V389.54H866.056V376.454H859.169V389.54H852.282V376.454H844.707V389.54H828.866V394.361H831.276V485.312H815.894V484.358H813.11V458.44H815.894V456.361H813.11V430.442H815.894V428.364H813.11V402.445H815.894V400.367H813.11V374.448H815.894V372.369H813.11V346.451H815.894V344.372H813.11V317.549H817.881V315.463H820.306V309.776H775.005V303.452H776.479V301.626H751.816V303.452H753.289V309.776H742.062V315.463H744.489V317.549H749.26V344.372H746.474V346.451H749.26V372.369H746.474V374.448H749.26V400.367H746.474V402.445H749.26V428.364H746.474V430.442H749.26V456.361H746.474V458.44H749.26V484.358H746.474V486.437H749.26V507.617H733.797V425.773H671.583V485.312H661.482V299.839H654.008V304.614L640.218 307.987V304.886H632.744V309.815L618.954 313.187V309.632H611.481V315.016L597.69 318.389V315.456H590.217V320.217L576.427 323.59V321.063H568.954V503.201H558.44V406.099H519.498V465.81H479.576V414.89H474.658V398.168H477.577V396.489H464.659V391.23H463.28V396.489H459.148V369.498H458.115V396.489H452.734V398.168H455.899V414.89H429.552V453.733H403.902L390.505 503.201H363.626V341.688H328.039V335.903H330.061V333.873H303.106V335.903H305.225V341.688V350.994V461.609H288.445V419.815H294.409V416.031H252.186V390.783H244.132V385.595H226.153V390.783H211.523V480.938H163.529V414.073H123.116V466.886H88.046V500.677H62.7596V458.196H29.5055V494.414H-0.603027V520.052H29.5055H39.6808H56.3031H62.7596H88.046H123.116H134.902H141.212H163.529H211.523H226.153H244.132H252.186H283.685H288.445H305.225H333.366H347.229H363.626H429.552H444.777H470.478H479.576H520.18H531.089H568.954H572.691H576.427H590.217H597.69H611.481H617.727H618.954H632.744H640.218H652.072H654.008H657.744H661.482H671.583H723.007H730.352H733.797H749.26H776.479H801.398H813.11H831.276H876.393H924.099H924.597H958.34H977.206H988.749H996.041H1052.51H1062.62H1074.71H1085.56H1125.85H1155.81H1161.95H1172.97H1240V495.645H1198.94Z" fill="#E5E7E9"/>
<path d="M28.759 94.873C25.868 94.873 23.187 95.766 20.97 97.287C19.11 87.482 10.509 80.064 0.163002 80.064C-5.679 80.064 -10.952 82.44 -14.78 86.266C-17.542 84.603 -20.77 83.638 -24.23 83.638C-33.22 83.638 -40.694 90.084 -42.31 98.603C-44.236 97.281 -46.565 96.505 -49.078 96.505C-55.305 96.505 -60.42 101.257 -61 107.332H-33.274H4.823H42.478C41.811 100.342 35.925 94.873 28.759 94.873Z" fill="#E5E5E5"/>
<path d="M196.503 110.192C193.612 110.192 190.931 111.086 188.714 112.607C186.855 102.802 178.253 95.384 167.907 95.384C162.065 95.384 156.792 97.76 152.964 101.586C150.202 99.923 146.974 98.958 143.514 98.958C134.524 98.958 127.05 105.404 125.434 113.923C123.508 112.601 121.179 111.825 118.666 111.825C112.439 111.825 107.325 116.577 106.744 122.652H134.47H172.567H210.222C209.556 115.661 203.67 110.192 196.503 110.192Z" fill="#F1F1F1"/>
<path d="M133.941 62.27C133.273 55.278 127.387 49.809 120.221 49.809C117.33 49.809 114.649 50.702 112.432 52.223C110.572 42.418 101.971 35 91.625 35C83.303 35 76.123 39.808 72.655 46.787C64.588 47.227 58.178 53.887 58.178 62.064C58.178 62.133 58.187 62.2 58.188 62.269H133.941V62.27Z" fill="#F1F1F1"/>
<path d="M1100.76 170.873C1097.87 170.873 1095.19 171.766 1092.97 173.287C1091.11 163.482 1082.51 156.064 1072.16 156.064C1066.32 156.064 1061.05 158.44 1057.22 162.266C1054.46 160.603 1051.23 159.638 1047.77 159.638C1038.78 159.638 1031.31 166.084 1029.69 174.603C1027.76 173.281 1025.43 172.505 1022.92 172.505C1016.69 172.505 1011.58 177.257 1011 183.332H1038.73H1076.82H1114.48C1113.81 176.342 1107.93 170.873 1100.76 170.873Z" fill="#E5E5E5"/>
<path d="M1268.5 186.192C1265.61 186.192 1262.93 187.086 1260.71 188.607C1258.86 178.802 1250.25 171.384 1239.91 171.384C1234.07 171.384 1228.79 173.76 1224.96 177.586C1222.2 175.923 1218.97 174.958 1215.51 174.958C1206.52 174.958 1199.05 181.404 1197.43 189.923C1195.51 188.601 1193.18 187.825 1190.67 187.825C1184.44 187.825 1179.33 192.577 1178.74 198.652H1206.47H1244.57H1282.22C1281.56 191.661 1275.67 186.192 1268.5 186.192Z" fill="#F1F1F1"/>
<path d="M1205.94 138.27C1205.27 131.278 1199.39 125.809 1192.22 125.809C1189.33 125.809 1186.65 126.702 1184.43 128.223C1182.57 118.418 1173.97 111 1163.62 111C1155.3 111 1148.12 115.808 1144.65 122.787C1136.59 123.227 1130.18 129.887 1130.18 138.064C1130.18 138.133 1130.19 138.2 1130.19 138.269H1205.94V138.27Z" fill="#F1F1F1"/>
</g>
<defs>
<clipPath id="clip0_382_5977">
<rect width="1240" height="428" fill="white"/>
</clipPath>
</defs>
</svg>
