<svg width="34" height="34" viewBox="0 0 34 34" fill="none" xmlns="http://www.w3.org/2000/svg">
<rect x="0.5" y="0.5" width="33" height="33" rx="16.5" fill="#FDFDFD"/>
<rect x="0.5" y="0.5" width="33" height="33" rx="16.5" stroke="#9A33C4" stroke-linecap="round"/>
<path d="M17.0033 7C12.8284 7 11.6074 7.00431 11.37 7.024C10.5133 7.09524 9.98012 7.23017 9.39931 7.51943C8.9517 7.74176 8.59869 7.99947 8.25029 8.36073C7.6158 9.01956 7.23126 9.83009 7.09205 10.7936C7.02437 11.2613 7.00468 11.3567 7.00068 13.7458C6.99915 14.5422 7.00068 15.5903 7.00068 16.9961C7.00068 21.1687 7.0053 22.3888 7.02529 22.6258C7.09451 23.4597 7.22526 23.9844 7.50213 24.5583C8.03126 25.6568 9.04184 26.4815 10.2324 26.7892C10.6446 26.8954 11.0999 26.9538 11.6844 26.9815C11.9321 26.9923 14.4562 27 16.9819 27C19.5076 27 22.0332 26.9969 22.2747 26.9846C22.9515 26.9528 23.3445 26.9 23.7791 26.7877C24.9773 26.4784 25.9694 25.666 26.5093 24.5521C26.7808 23.9921 26.9185 23.4474 26.9808 22.657C26.9943 22.4847 27 19.7372 27 16.9935C27 14.2492 26.9938 11.5068 26.9803 11.3345C26.9172 10.5314 26.7796 9.99133 26.4993 9.42051C26.2694 8.95324 26.014 8.60429 25.6433 8.24749C24.9818 7.61544 24.1727 7.23079 23.2086 7.0917C22.7414 7.02416 22.6484 7.00415 20.258 7H17.0033Z" fill="url(#paint0_radial_432_790)"/>
<path d="M17.0033 7C12.8284 7 11.6074 7.00431 11.37 7.024C10.5133 7.09524 9.98012 7.23017 9.39931 7.51943C8.9517 7.74176 8.59869 7.99947 8.25029 8.36073C7.6158 9.01956 7.23126 9.83009 7.09205 10.7936C7.02437 11.2613 7.00468 11.3567 7.00068 13.7458C6.99915 14.5422 7.00068 15.5903 7.00068 16.9961C7.00068 21.1687 7.0053 22.3888 7.02529 22.6258C7.09451 23.4597 7.22526 23.9844 7.50213 24.5583C8.03126 25.6568 9.04184 26.4815 10.2324 26.7892C10.6446 26.8954 11.0999 26.9538 11.6844 26.9815C11.9321 26.9923 14.4562 27 16.9819 27C19.5076 27 22.0332 26.9969 22.2747 26.9846C22.9515 26.9528 23.3445 26.9 23.7791 26.7877C24.9773 26.4784 25.9694 25.666 26.5093 24.5521C26.7808 23.9921 26.9185 23.4474 26.9808 22.657C26.9943 22.4847 27 19.7372 27 16.9935C27 14.2492 26.9938 11.5068 26.9803 11.3345C26.9172 10.5314 26.7796 9.99133 26.4993 9.42051C26.2694 8.95324 26.014 8.60429 25.6433 8.24749C24.9818 7.61544 24.1727 7.23079 23.2086 7.0917C22.7414 7.02416 22.6484 7.00415 20.258 7H17.0033Z" fill="url(#paint1_radial_432_790)"/>
<path d="M16.9986 9.61561C14.9935 9.61561 14.7418 9.62438 13.9543 9.66023C13.1683 9.69623 12.6318 9.8207 12.1623 10.0033C11.6767 10.192 11.2648 10.4443 10.8544 10.8549C10.4437 11.2654 10.1915 11.6775 10.0023 12.1631C9.81923 12.6328 9.69464 13.1696 9.65926 13.9555C9.62404 14.7433 9.61481 14.9951 9.61481 17.0008C9.61481 19.0066 9.62373 19.2575 9.65941 20.0453C9.69556 20.8315 9.82 21.3681 10.0024 21.8377C10.1912 22.3235 10.4434 22.7355 10.854 23.146C11.2642 23.5568 11.6761 23.8097 12.1614 23.9984C12.6312 24.181 13.1678 24.3055 13.9537 24.3415C14.7412 24.3773 14.9927 24.3861 16.9977 24.3861C19.003 24.3861 19.2539 24.3773 20.0415 24.3415C20.8275 24.3055 21.3646 24.181 21.8344 23.9984C22.3198 23.8097 22.7311 23.5568 23.1413 23.146C23.552 22.7355 23.8043 22.3235 23.9935 21.8379C24.175 21.3681 24.2996 20.8313 24.3365 20.0454C24.3719 19.2577 24.3811 19.0066 24.3811 17.0008C24.3811 14.9951 24.3719 14.7434 24.3365 13.9557C24.2996 13.1694 24.175 12.6328 23.9935 12.1632C23.8043 11.6775 23.552 11.2654 23.1413 10.8549C22.7306 10.4441 22.32 10.1918 21.8339 10.0033C21.3632 9.8207 20.8264 9.69623 20.0404 9.66023C19.2528 9.62438 19.0021 9.61561 16.9963 9.61561H16.9986ZM16.3363 10.9465C16.5329 10.9462 16.7522 10.9465 16.9986 10.9465C18.97 10.9465 19.2036 10.9536 19.9821 10.989C20.702 11.0219 21.0926 11.1422 21.3529 11.2433C21.6975 11.3771 21.9431 11.5372 22.2014 11.7956C22.4598 12.0541 22.6197 12.3003 22.7539 12.6449C22.8549 12.905 22.9754 13.2958 23.0081 14.0158C23.0435 14.7944 23.0512 15.0282 23.0512 16.9992C23.0512 18.9701 23.0435 19.204 23.0081 19.9825C22.9752 20.7025 22.8549 21.0933 22.7539 21.3534C22.6201 21.698 22.4598 21.9434 22.2014 22.2017C21.943 22.4602 21.6976 22.6202 21.3529 22.7541C21.093 22.8557 20.702 22.9757 19.9821 23.0086C19.2038 23.044 18.97 23.0517 16.9986 23.0517C15.0272 23.0517 14.7935 23.044 14.0152 23.0086C13.2953 22.9754 12.9047 22.855 12.6442 22.7539C12.2997 22.6201 12.0536 22.4601 11.7952 22.2016C11.5368 21.9431 11.3768 21.6976 11.2427 21.3528C11.1416 21.0927 11.0212 20.7019 10.9884 19.9819C10.953 19.2033 10.9459 18.9695 10.9459 16.9973C10.9459 15.0251 10.953 14.7925 10.9884 14.014C11.0213 13.2939 11.1416 12.9031 11.2427 12.6428C11.3765 12.2981 11.5368 12.052 11.7952 11.7935C12.0536 11.535 12.2997 11.375 12.6442 11.2408C12.9045 11.1393 13.2953 11.0193 14.0152 10.9862C14.6963 10.9554 14.9603 10.9462 16.3363 10.9446V10.9465ZM20.9398 12.1727C20.4506 12.1727 20.0538 12.5692 20.0538 13.0587C20.0538 13.5479 20.4506 13.9449 20.9398 13.9449C21.4289 13.9449 21.8257 13.5479 21.8257 13.0587C21.8257 12.5694 21.4289 12.1727 20.9398 12.1727ZM16.9986 13.2082C14.9047 13.2082 13.2071 14.9064 13.2071 17.0008C13.2071 19.0953 14.9047 20.7927 16.9986 20.7927C19.0926 20.7927 20.7896 19.0953 20.7896 17.0008C20.7896 14.9064 19.0926 13.2082 16.9986 13.2082ZM16.9986 14.5391C18.3578 14.5391 19.4597 15.6412 19.4597 17.0008C19.4597 18.3603 18.3578 19.4626 16.9986 19.4626C15.6394 19.4626 14.5376 18.3603 14.5376 17.0008C14.5376 15.6412 15.6394 14.5391 16.9986 14.5391Z" fill="white"/>
<defs>
<radialGradient id="paint0_radial_432_790" cx="0" cy="0" r="1" gradientUnits="userSpaceOnUse" gradientTransform="translate(12.3125 28.5404) rotate(-90) scale(19.8215 18.4355)">
<stop stop-color="#FFDD55"/>
<stop offset="0.1" stop-color="#FFDD55"/>
<stop offset="0.5" stop-color="#FF543E"/>
<stop offset="1" stop-color="#C837AB"/>
</radialGradient>
<radialGradient id="paint1_radial_432_790" cx="0" cy="0" r="1" gradientUnits="userSpaceOnUse" gradientTransform="translate(3.64989 8.44077) rotate(78.6806) scale(8.86028 36.5225)">
<stop stop-color="#3771C8"/>
<stop offset="0.128" stop-color="#3771C8"/>
<stop offset="1" stop-color="#6600FF" stop-opacity="0"/>
</radialGradient>
</defs>
</svg>
