<svg width="30" height="30" viewBox="0 0 30 30" fill="none" xmlns="http://www.w3.org/2000/svg">
<rect x="0.5" y="0.5" width="29" height="29" rx="14.5" stroke="#858585"/>
<path d="M18.2029 12.6337C18.6005 12.6337 18.9229 12.3265 18.9229 11.9474C18.9229 11.5683 18.6005 11.2611 18.2029 11.2611C17.8052 11.2611 17.4829 11.5683 17.4829 11.9474C17.4829 12.3265 17.8052 12.6337 18.2029 12.6337Z" fill="#858585"/>
<path d="M15.0002 12.0622C14.3909 12.0622 13.7952 12.2344 13.2885 12.5571C12.7819 12.8798 12.387 13.3385 12.1538 13.8752C11.9206 14.4118 11.8596 15.0023 11.9784 15.5721C12.0973 16.1418 12.3908 16.6651 12.8216 17.0758C13.2525 17.4866 13.8015 17.7663 14.3992 17.8796C14.9968 17.9929 15.6163 17.9348 16.1793 17.7125C16.7423 17.4902 17.2235 17.1137 17.562 16.6308C17.9005 16.1478 18.0812 15.58 18.0812 14.9991C18.0812 14.2202 17.7566 13.4731 17.1788 12.9224C16.601 12.3716 15.8174 12.0622 15.0002 12.0622ZM15.0002 16.9056C14.6047 16.9056 14.218 16.7938 13.8891 16.5843C13.5602 16.3748 13.3039 16.077 13.1525 15.7287C13.0011 15.3803 12.9615 14.997 13.0387 14.6272C13.1158 14.2573 13.3063 13.9176 13.586 13.651C13.8657 13.3844 14.2221 13.2028 14.6101 13.1292C14.998 13.0557 15.4002 13.0934 15.7656 13.2377C16.1311 13.382 16.4434 13.6264 16.6632 13.9399C16.8829 14.2534 17.0002 14.622 17.0002 14.9991C17.0002 15.5047 16.7895 15.9896 16.4145 16.3472C16.0394 16.7047 15.5307 16.9056 15.0002 16.9056Z" fill="#858585"/>
<path d="M15 10.311C16.602 10.311 16.792 10.3167 17.4245 10.3443C17.8049 10.3486 18.1817 10.4152 18.5385 10.5412C18.7973 10.6364 19.0324 10.7821 19.2286 10.9691C19.4247 11.1561 19.5777 11.3802 19.6775 11.6269C19.8096 11.967 19.8795 12.3262 19.884 12.6888C19.913 13.2918 19.919 13.4729 19.919 15.0004C19.919 16.528 19.913 16.7082 19.884 17.3111C19.8795 17.6737 19.8096 18.0329 19.6775 18.373C19.5777 18.6197 19.4247 18.8438 19.2286 19.0308C19.0324 19.2178 18.7973 19.3636 18.5385 19.4587C18.1817 19.5847 17.8049 19.6513 17.4245 19.6556C16.792 19.6832 16.602 19.689 15 19.689C13.398 19.689 13.208 19.6832 12.5755 19.6556C12.1951 19.6513 11.8183 19.5847 11.4615 19.4587C11.2027 19.3636 10.9676 19.2178 10.7714 19.0308C10.5753 18.8438 10.4223 18.6197 10.3225 18.373C10.1904 18.0329 10.1205 17.6737 10.116 17.3111C10.087 16.7082 10.081 16.5271 10.081 15C10.081 13.4729 10.087 13.2918 10.116 12.6888C10.1205 12.3262 10.1904 11.967 10.3225 11.6269C10.4223 11.3802 10.5753 11.1561 10.7714 10.9691C10.9676 10.7821 11.2027 10.6364 11.4615 10.5412C11.8183 10.4152 12.1951 10.3486 12.5755 10.3443C13.208 10.3167 13.398 10.311 15 10.311ZM15 9.28052C13.3705 9.28052 13.166 9.28719 12.526 9.31483C12.0284 9.32441 11.5361 9.41434 11.07 9.58079C10.6714 9.72773 10.3093 9.95245 10.0071 10.2405C9.70489 10.5286 9.46915 10.8737 9.315 11.2537C9.14033 11.6982 9.04599 12.1676 9.036 12.6421C9.007 13.2522 9 13.4462 9 15C9 16.5537 9.007 16.7482 9.036 17.3583C9.04605 17.8326 9.14038 18.3019 9.315 18.7462C9.46915 19.1262 9.70489 19.4713 10.0071 19.7594C10.3093 20.0475 10.6714 20.2722 11.07 20.4191C11.5362 20.5856 12.0287 20.6756 12.5265 20.6851C13.1665 20.7127 13.3705 20.7194 15 20.7194C16.6295 20.7194 16.834 20.7127 17.474 20.6851C17.9718 20.6756 18.4643 20.5856 18.9305 20.4191C19.3291 20.2722 19.6912 20.0475 19.9934 19.7594C20.2956 19.4713 20.5314 19.1262 20.6855 18.7462C20.86 18.3017 20.9542 17.8323 20.964 17.3578C20.993 16.7477 21 16.5537 21 15C21 13.4462 20.993 13.2517 20.964 12.6416C20.954 12.1673 20.8596 11.698 20.685 11.2537C20.5309 10.8737 20.2951 10.5286 19.9929 10.2405C19.6907 9.95245 19.3286 9.72773 18.93 9.58079C18.4637 9.41445 17.9713 9.32468 17.4735 9.31531C16.8335 9.28671 16.63 9.28052 15 9.28052Z" fill="#858585"/>
</svg>
