<svg width="34" height="35" viewBox="0 0 34 35" fill="none" xmlns="http://www.w3.org/2000/svg">
<rect x="0.5" y="1" width="33" height="33" rx="16.5" fill="#FDFDFD"/>
<rect x="0.5" y="1" width="33" height="33" rx="16.5" stroke="#FF9500" stroke-linecap="round"/>
<path d="M11.462 22.75C11.1165 22.75 10.8283 22.6345 10.5973 22.4035C10.3663 22.1725 10.2505 21.884 10.25 21.538V13.462C10.25 13.1165 10.3658 12.8282 10.5973 12.5972C10.8288 12.3662 11.1167 12.2505 11.4612 12.25H22.5388C22.8838 12.25 23.1718 12.3657 23.4028 12.5972C23.6338 12.8287 23.7495 13.117 23.75 13.462V21.5388C23.75 21.8838 23.6343 22.172 23.4028 22.4035C23.1713 22.635 22.8833 22.7505 22.5388 22.75H11.462ZM23 13.6638L17.336 17.3718C17.283 17.3993 17.2295 17.4225 17.1755 17.4415C17.121 17.46 17.0625 17.4693 17 17.4693C16.9375 17.4693 16.879 17.46 16.8245 17.4415C16.77 17.423 16.7165 17.3998 16.664 17.3718L11 13.663V21.538C11 21.673 11.0432 21.7838 11.1297 21.8703C11.2162 21.9568 11.327 22 11.462 22H22.5388C22.6733 22 22.7837 21.9568 22.8702 21.8703C22.9567 21.7838 23 21.673 23 21.538V13.6638ZM17 16.75L22.769 13H11.231L17 16.75ZM11 13.822V13.2137V13.2392V13V13.24V13.201V13.822Z" fill="#FF9500"/>
</svg>
