<svg width="30" height="32" viewBox="0 0 30 32" fill="none" xmlns="http://www.w3.org/2000/svg">
<path fill-rule="evenodd" clip-rule="evenodd" d="M6 13.8462C6 13.7033 6.05926 13.5664 6.16475 13.4654C6.27024 13.3644 6.41332 13.3077 6.5625 13.3077H19.284C19.4332 13.3077 19.5763 13.3644 19.6817 13.4654C19.7872 13.5664 19.8465 13.7033 19.8465 13.8462C19.8465 13.989 19.7872 14.1259 19.6817 14.2269C19.5763 14.3279 19.4332 14.3846 19.284 14.3846H6.5625C6.41332 14.3846 6.27024 14.3279 6.16475 14.2269C6.05926 14.1259 6 13.989 6 13.8462ZM6 9.53846C6 9.39565 6.05926 9.25869 6.16475 9.15771C6.27024 9.05673 6.41332 9 6.5625 9H23.4375C23.5867 9 23.7298 9.05673 23.8352 9.15771C23.9407 9.25869 24 9.39565 24 9.53846C24 9.68127 23.9407 9.81823 23.8352 9.91921C23.7298 10.0202 23.5867 10.0769 23.4375 10.0769H6.5625C6.41332 10.0769 6.27024 10.0202 6.16475 9.91921C6.05926 9.81823 6 9.68127 6 9.53846ZM6 18.1538C6 18.011 6.05926 17.8741 6.16475 17.7731C6.27024 17.6721 6.41332 17.6154 6.5625 17.6154H23.4375C23.5867 17.6154 23.7298 17.6721 23.8352 17.7731C23.9407 17.8741 24 18.011 24 18.1538C24 18.2967 23.9407 18.4336 23.8352 18.5346C23.7298 18.6356 23.5867 18.6923 23.4375 18.6923H6.5625C6.41332 18.6923 6.27024 18.6356 6.16475 18.5346C6.05926 18.4336 6 18.2967 6 18.1538ZM6 22.4615C6 22.3187 6.05926 22.1818 6.16475 22.0808C6.27024 21.9798 6.41332 21.9231 6.5625 21.9231H19.284C19.4332 21.9231 19.5763 21.9798 19.6817 22.0808C19.7872 22.1818 19.8465 22.3187 19.8465 22.4615C19.8465 22.6043 19.7872 22.7413 19.6817 22.8423C19.5763 22.9433 19.4332 23 19.284 23H6.5625C6.41332 23 6.27024 22.9433 6.16475 22.8423C6.05926 22.7413 6 22.6043 6 22.4615Z" fill="#858585"/>
</svg>
