<svg width="26" height="25" viewBox="0 0 26 25" fill="none" xmlns="http://www.w3.org/2000/svg">
<rect x="1" y="0.5" width="24" height="24" rx="12" fill="#FFF6F6"/>
<rect x="1" y="0.5" width="24" height="24" rx="12" stroke="#FF2E31"/>
<path d="M11.5029 15.743C11.5029 15.5789 11.5352 15.4165 11.598 15.2649C11.6608 15.1133 11.7528 14.9756 11.8688 14.8596C11.9848 14.7436 12.1225 14.6516 12.2741 14.5888C12.4257 14.5261 12.5881 14.4937 12.7521 14.4937C12.9162 14.4937 13.0786 14.5261 13.2302 14.5888C13.3818 14.6516 13.5195 14.7436 13.6355 14.8596C13.7515 14.9756 13.8435 15.1133 13.9063 15.2649C13.9691 15.4165 14.0014 15.5789 14.0014 15.743C14.0014 16.0743 13.8698 16.392 13.6355 16.6263C13.4012 16.8606 13.0835 16.9922 12.7521 16.9922C12.4208 16.9922 12.1031 16.8606 11.8688 16.6263C11.6345 16.392 11.5029 16.0743 11.5029 15.743ZM11.6254 8.24141C11.6087 8.08381 11.6254 7.92447 11.6743 7.77373C11.7232 7.623 11.8033 7.48423 11.9093 7.36644C12.0153 7.24864 12.1449 7.15445 12.2897 7.08998C12.4345 7.02551 12.5912 6.99219 12.7497 6.99219C12.9081 6.99219 13.0648 7.02551 13.2096 7.08998C13.3544 7.15445 13.484 7.24864 13.59 7.36644C13.696 7.48423 13.7761 7.623 13.825 7.77373C13.8739 7.92447 13.8906 8.08381 13.8739 8.24141L13.4367 12.6224C13.419 12.7923 13.3389 12.9495 13.212 13.0638C13.0851 13.1781 12.9204 13.2414 12.7497 13.2414C12.5789 13.2414 12.4142 13.1781 12.2873 13.0638C12.1604 12.9495 12.0803 12.7923 12.0626 12.6224L11.6254 8.24141Z" fill="#FF2E31"/>
</svg>
