<svg width="34" height="35" viewBox="0 0 34 35" fill="none" xmlns="http://www.w3.org/2000/svg">
<rect x="0.5" y="1" width="33" height="33" rx="16.5" fill="#FDFDFD"/>
<rect x="0.5" y="1" width="33" height="33" rx="16.5" stroke="#CF2F28" stroke-linecap="round"/>
<path d="M20.4575 24.25C19.9605 24.25 19.5388 24.0763 19.1923 23.7288C18.8463 23.3808 18.6732 22.9582 18.6732 22.4612C18.6732 22.3862 18.7062 22.197 18.7722 21.8935L13.3745 18.6888C13.2125 18.8758 13.0143 19.0225 12.7798 19.129C12.5453 19.2355 12.2935 19.2888 12.0245 19.2888C11.5315 19.2888 11.1125 19.1132 10.7675 18.7622C10.4225 18.4112 10.25 17.9905 10.25 17.5C10.25 17.0095 10.4225 16.5888 10.7675 16.2378C11.1125 15.8868 11.5315 15.7112 12.0245 15.7112C12.293 15.7112 12.5448 15.7645 12.7798 15.871C13.0148 15.9775 13.213 16.1245 13.3745 16.312L18.773 13.1207C18.738 13.0237 18.7127 12.9275 18.6972 12.832C18.6812 12.736 18.6732 12.638 18.6732 12.538C18.6732 12.0415 18.8475 11.6192 19.196 11.2712C19.5445 10.9237 19.9675 10.75 20.465 10.75C20.9625 10.75 21.3845 10.9243 21.731 11.2728C22.0775 11.6213 22.2505 12.0442 22.25 12.5417C22.2495 13.0392 22.0758 13.4613 21.7288 13.8078C21.3818 14.1543 20.9592 14.3273 20.4612 14.3268C20.1902 14.3268 19.9402 14.2712 19.7112 14.1602C19.4822 14.0492 19.2873 13.9 19.1263 13.7125L13.727 16.9172C13.762 17.0142 13.7872 17.1108 13.8027 17.2068C13.8187 17.3023 13.8268 17.4 13.8268 17.5C13.8268 17.6 13.8187 17.6977 13.8027 17.7932C13.7867 17.8887 13.7618 17.9853 13.7278 18.0828L19.1263 21.2875C19.2878 21.1 19.4827 20.9507 19.7112 20.8397C19.9402 20.7287 20.1902 20.6733 20.4612 20.6733C20.9582 20.6733 21.3808 20.8473 21.7288 21.1953C22.0763 21.5443 22.25 21.9675 22.25 22.465C22.25 22.9625 22.0757 23.3845 21.7272 23.731C21.3787 24.0775 20.955 24.2505 20.4575 24.25Z" fill="#CF2F28"/>
</svg>
