<svg width="24" height="24" viewBox="0 0 24 24" fill="none" xmlns="http://www.w3.org/2000/svg">
<path d="M21.0624 7.75875L21.0174 8.09468L21.3128 8.26092C22.6382 9.00698 23.5 10.4263 23.5 12C23.5 13.5737 22.6382 14.993 21.3128 15.7391L21.0174 15.9053L21.0624 16.2413C21.0875 16.4283 21.1 16.6145 21.1 16.8C21.1 19.3555 18.7917 21.4035 16.2411 21.0624L15.905 21.0175L15.7389 21.313C14.9941 22.6382 13.575 23.5 12 23.5C10.425 23.5 9.00586 22.6382 8.26107 21.313L8.09501 21.0176L7.75906 21.0624C5.20274 21.4035 2.90028 19.356 2.9 16.8005C2.90035 16.6133 2.91292 16.4263 2.93762 16.2408L2.98232 15.9052L2.68725 15.7391C1.36176 14.993 0.5 13.5737 0.5 12C0.5 10.4263 1.36176 9.00698 2.68725 8.26092L2.98261 8.09468L2.93756 7.75874C2.91248 7.57169 2.9 7.38549 2.9 7.2C2.9 4.64315 5.20335 2.5912 7.75804 2.93747L8.09464 2.98309L8.26107 2.68698C9.00586 1.36185 10.425 0.5 12 0.5C13.575 0.5 14.9941 1.36185 15.7389 2.68698L15.9054 2.98318L16.2421 2.93745C18.791 2.59124 21.1 4.64344 21.1 7.2C21.1 7.38549 21.0875 7.57169 21.0624 7.75875Z" fill="#00B14A" stroke="#F5FFF9"/>
<path d="M15.8395 10.0181C15.9436 9.9048 16.0013 9.75305 16 9.59553C15.9987 9.43802 15.9385 9.28734 15.8325 9.17596C15.7265 9.06457 15.583 9.00139 15.4331 9.00002C15.2832 8.99865 15.1387 9.05921 15.0309 9.16864L10.8563 13.5541L8.96914 11.5716C8.86129 11.4622 8.71683 11.4017 8.56689 11.403C8.41695 11.4044 8.27352 11.4676 8.16749 11.579C8.06147 11.6903 8.00132 11.841 8.00002 11.9985C7.99872 12.1561 8.05636 12.3078 8.16053 12.4211L10.448 14.8241C10.5552 14.9367 10.7006 15 10.8523 15C11.0039 15 11.1493 14.9367 11.2566 14.8241L15.8315 10.0181H15.8395Z" fill="#FDFDFD"/>
</svg>
