<svg width="16" height="17" viewBox="0 0 16 17" fill="none" xmlns="http://www.w3.org/2000/svg">
<path d="M13.34 10.7533C12.52 10.7533 11.7267 10.62 10.9867 10.38C10.8707 10.3409 10.7461 10.3352 10.6271 10.3635C10.508 10.3918 10.3993 10.453 10.3133 10.54L9.26667 11.8533C7.38 10.9533 5.61333 9.25333 4.67333 7.3L5.97333 6.19333C6.15333 6.00667 6.20667 5.74667 6.13333 5.51333C5.88667 4.77333 5.76 3.98 5.76 3.16C5.76 2.8 5.46 2.5 5.1 2.5H2.79333C2.43333 2.5 2 2.66 2 3.16C2 9.35333 7.15333 14.5 13.34 14.5C13.8133 14.5 14 14.08 14 13.7133V11.4133C14 11.0533 13.7 10.7533 13.34 10.7533Z" fill="#FDFDFD"/>
</svg>
