<svg width="503" height="334" viewBox="0 0 503 334" fill="none" xmlns="http://www.w3.org/2000/svg">
<path d="M0 16C0 7.16344 7.16344 0 16 0H487C495.837 0 503 7.16344 503 16V318C503 326.837 495.837 334 487 334H16C7.16345 334 0 326.837 0 318V16Z" fill="#FFF5F5"/>
<path d="M214.842 42.5921C198.247 54.9314 193.788 74.4685 194.605 84.8654C195.65 97.58 198.231 114.13 198.231 114.13C198.231 114.13 193.118 116.905 193.118 128.069C194.899 156.093 204.274 143.999 206.201 156.289C210.84 185.897 221.44 180.625 221.44 196.783C221.44 223.698 210.334 236.282 175.658 251.2C140.868 266.183 105 285.035 105 317.678V334H399V317.678C399 285.035 363.116 266.183 328.309 251.216C293.634 236.298 282.56 223.731 282.56 196.8C282.56 180.641 293.127 185.913 297.782 156.306C299.726 144.015 309.085 156.11 310.898 128.085C310.898 116.921 305.769 114.147 305.769 114.147C305.769 114.147 308.35 97.5963 309.379 84.8817C310.441 71.5469 302.878 43.0818 271.812 34.3497C266.373 28.8003 262.698 19.9702 279.424 11.1076C242.837 9.39378 234.327 28.5228 214.842 42.5921Z" fill="#FFE5E5"/>
</svg>
